<?xml version="1.0" standalone="no"?>
<!DOCTYPE svg PUBLIC "-//W3C//DTD SVG 20010904//EN"
 "http://www.w3.org/TR/2001/REC-SVG-20010904/DTD/svg10.dtd">
<svg version="1.0" xmlns="http://www.w3.org/2000/svg"
 width="544.000000pt" height="544.000000pt" viewBox="0 0 544.000000 544.000000"
 preserveAspectRatio="xMidYMid meet">
<metadata>
Created by potrace 1.14, written by Peter Selinger 2001-2017
</metadata>
<g transform="translate(0.000000,544.000000) scale(0.100000,-0.100000)"
fill="#000000" stroke="none">
<path d="M2755 5211 c-3 -6 -14 -8 -25 -6 -12 2 -18 0 -15 -4 7 -12 -19 -21
-34 -12 -18 11 -62 1 -55 -13 3 -6 -4 0 -15 13 -16 17 -21 19 -21 7 0 -10 -5
-13 -17 -9 -10 4 -14 2 -10 -4 5 -8 -1 -7 -17 0 -13 7 -22 15 -20 18 5 9 -23
5 -32 -4 -4 -4 -16 -7 -26 -7 -10 0 -18 -5 -18 -11 0 -5 4 -7 10 -4 6 3 7 -1
3 -10 -3 -9 -9 -13 -12 -8 -3 4 -15 15 -26 23 -18 13 -19 13 -8 0 10 -13 8
-18 -9 -29 -11 -7 -17 -8 -13 -2 3 6 2 11 -4 11 -5 0 -13 -5 -16 -11 -5 -7
-13 -5 -24 5 -11 10 -21 12 -31 6 -8 -5 -18 -6 -24 -3 -5 3 -6 1 -2 -5 5 -9
13 -9 29 -1 21 10 21 9 3 -5 -14 -12 -24 -13 -39 -4 -17 9 -19 8 -13 -7 6 -16
4 -16 -11 -4 -15 12 -16 12 -10 -4 5 -13 3 -16 -6 -10 -18 11 -36 12 -43 2 -3
-5 -9 -7 -14 -4 -4 3 -6 -5 -2 -17 5 -21 4 -22 -13 -8 -10 8 -16 10 -12 4 9
-16 -23 -28 -37 -14 -8 8 -6 9 7 5 9 -4 17 -5 17 -2 0 14 -30 14 -42 -1 -11
-13 -11 -14 1 -7 10 5 12 4 7 -3 -4 -7 -17 -12 -29 -12 -18 0 -19 2 -7 11 13
9 13 10 0 6 -8 -2 -16 -9 -16 -15 -1 -7 -2 -17 -3 -23 0 -5 -5 -8 -11 -4 -5 3
-6 13 -3 22 5 11 3 14 -6 9 -7 -5 -10 -18 -7 -30 5 -21 5 -21 -11 -1 -15 20
-15 20 -10 -2 3 -14 1 -21 -7 -20 -6 1 -10 -4 -8 -11 1 -8 -2 -11 -8 -7 -5 3
-19 1 -31 -6 -12 -6 -19 -7 -16 -2 4 5 0 10 -8 10 -13 0 -12 -5 2 -26 13 -20
13 -23 2 -14 -11 9 -19 9 -26 2 -8 -8 -13 -7 -18 2 -6 8 -4 10 5 4 9 -5 11 -4
6 4 -4 6 -12 9 -17 5 -5 -3 -7 -9 -4 -14 3 -4 -2 -11 -11 -14 -9 -3 -12 -11
-8 -18 6 -10 4 -10 -8 0 -11 9 -18 10 -23 2 -3 -6 -11 -7 -17 -4 -7 4 -8 2 -4
-5 6 -9 12 -9 24 1 15 12 16 11 4 -4 -8 -9 -20 -14 -28 -11 -8 3 -14 0 -14 -6
0 -6 -7 -11 -15 -11 -8 0 -15 -6 -15 -12 0 -9 -4 -8 -10 2 -8 13 -10 12 -10
-3 0 -11 -4 -15 -12 -11 -7 4 -8 3 -4 -4 4 -7 3 -12 -2 -12 -6 0 -13 -7 -16
-16 -5 -12 -2 -15 11 -10 14 6 15 4 6 -5 -15 -15 -33 -3 -27 19 5 15 4 15 -6
-1 -6 -9 -15 -15 -21 -12 -16 11 -9 -7 9 -21 15 -12 14 -12 -8 -7 -22 6 -23 5
-12 -9 11 -14 10 -16 -9 -11 -13 4 -20 2 -16 -3 3 -6 1 -16 -5 -24 -8 -12 -9
-12 -4 2 3 10 1 20 -4 23 -6 4 -10 2 -10 -4 0 -12 -29 -41 -41 -41 -6 0 -7 6
-4 13 4 6 -9 -5 -28 -25 -33 -37 -56 -51 -41 -25 6 9 5 9 -8 0 -8 -7 -19 -9
-23 -5 -5 4 -5 2 -1 -5 3 -6 2 -14 -4 -18 -7 -4 -6 -13 1 -27 6 -12 7 -18 1
-14 -5 3 -13 -1 -16 -10 -3 -8 -2 -13 2 -10 4 3 8 -6 8 -19 0 -13 -4 -21 -8
-19 -5 3 -6 9 -4 13 3 4 -2 8 -10 8 -10 0 -11 -4 -4 -11 17 -17 12 -39 -7 -32
-17 6 -17 5 0 -8 21 -16 22 -30 2 -22 -13 4 -13 2 -5 -14 13 -25 13 -33 -2
-24 -8 5 -7 1 2 -10 22 -27 21 -46 -3 -56 -12 -5 -17 -9 -10 -9 7 -1 12 -14
11 -34 -1 -19 2 -39 6 -45 4 -8 0 -12 -11 -12 -15 0 -15 -2 -3 -9 8 -6 18 -7
23 -4 5 3 2 -6 -7 -20 -15 -22 -15 -26 -2 -40 12 -12 13 -17 3 -20 -9 -4 -9
-8 2 -15 11 -8 11 -10 0 -15 -12 -4 -11 -7 1 -16 13 -10 13 -11 0 -11 -9 0
-11 -3 -5 -8 6 -4 11 -13 13 -21 3 -12 0 -12 -13 -1 -13 11 -15 10 -9 -4 3 -9
9 -16 13 -16 4 0 8 -7 8 -15 0 -11 -4 -12 -14 -3 -11 8 -12 7 -7 -6 3 -9 11
-16 18 -16 6 0 4 -5 -4 -10 -12 -8 -12 -10 -1 -10 10 0 11 -3 2 -14 -8 -10 -9
-16 -1 -21 6 -3 7 -12 3 -18 -11 -18 -12 -38 -2 -31 5 3 9 -2 9 -11 0 -12 -5
-15 -17 -11 -17 6 -17 5 -1 -7 14 -11 15 -16 5 -27 -8 -8 -8 -11 -1 -7 19 11
24 -19 7 -44 -9 -12 -11 -19 -5 -15 7 4 12 2 12 -3 0 -6 -6 -11 -12 -11 -9 0
-8 -4 2 -10 13 -9 13 -11 0 -20 -10 -7 -11 -10 -2 -10 8 0 11 -11 9 -34 -3
-26 -1 -33 9 -29 9 3 14 -2 14 -16 0 -31 1 -35 11 -48 7 -7 6 -14 -1 -18 -12
-7 -11 -8 -14 28 -2 15 -6 30 -9 33 -8 9 -1 -61 8 -75 3 -6 11 -8 17 -5 6 4 3
-4 -8 -18 -17 -23 -20 -24 -31 -9 -11 14 -14 14 -23 1 -8 -13 -10 -13 -10 3 0
9 5 17 12 17 6 0 8 3 4 7 -4 4 -15 -3 -25 -16 -14 -18 -20 -21 -26 -11 -5 9
-4 11 3 6 7 -4 12 -1 12 9 0 13 -4 14 -20 5 -14 -7 -20 -7 -20 0 0 5 -5 10
-11 10 -5 0 -8 -4 -5 -9 4 -5 -4 -7 -16 -3 -14 3 -19 1 -14 -6 3 -6 1 -14 -5
-18 -8 -4 -9 -3 -5 4 4 7 4 12 -1 12 -4 0 -15 -13 -24 -29 -13 -22 -14 -32 -5
-42 6 -7 -5 -2 -24 11 -20 14 -29 17 -22 8 7 -9 9 -18 5 -20 -4 -3 -3 -3 4 -2
7 2 10 -3 6 -11 -3 -8 -8 -13 -12 -11 -4 3 -7 -7 -7 -22 0 -29 19 -55 32 -44
5 4 2 -1 -5 -10 -14 -19 -26 -25 -16 -9 3 5 2 12 -3 15 -4 2 -8 -9 -7 -25 0
-16 3 -29 7 -29 5 0 8 5 8 10 0 6 5 10 11 10 8 0 8 -4 0 -14 -8 -10 -9 -16 -1
-21 13 -8 13 -25 -1 -25 -5 0 -8 4 -4 9 3 5 1 12 -4 15 -5 4 -12 2 -15 -3 -4
-5 -1 -13 5 -17 8 -4 7 -9 -2 -16 -11 -8 -10 -9 3 -4 10 3 18 1 18 -4 0 -5 8
-7 17 -4 17 5 17 5 0 -6 -9 -6 -23 -8 -30 -4 -8 5 -8 2 2 -9 7 -9 17 -15 21
-12 5 3 12 0 16 -6 4 -7 -3 -20 -17 -31 -13 -10 -17 -16 -7 -12 15 5 26 -11
32 -50 3 -17 25 -53 26 -40 0 5 -5 15 -10 20 -7 7 -7 11 3 11 18 0 19 -37 1
-44 -12 -4 -13 -8 -3 -14 13 -8 20 -28 21 -70 1 -20 4 -24 13 -16 9 9 9 17 -1
36 -7 13 -10 29 -7 34 3 5 -1 14 -8 19 -12 8 -11 9 1 5 8 -2 16 -16 17 -32 1
-15 6 -32 12 -38 5 -5 7 -15 5 -22 -3 -7 -1 -16 5 -19 6 -4 8 -13 5 -21 -4 -8
-11 -12 -17 -8 -6 3 -7 1 -3 -5 4 -6 14 -8 24 -5 14 6 15 4 5 -8 -10 -13 -9
-20 8 -37 11 -12 17 -22 13 -22 -3 0 1 -11 10 -25 9 -14 12 -25 6 -25 -5 0
-10 4 -10 8 0 5 -7 17 -15 28 -15 17 -15 16 -1 -12 10 -20 12 -35 5 -43 -6 -8
-6 -8 3 -1 17 14 28 12 28 -5 0 -8 -5 -15 -10 -15 -6 0 9 -18 32 -40 24 -22
48 -40 54 -40 14 0 36 25 29 33 -3 4 -2 5 2 2 12 -9 12 -36 1 -29 -7 5 -8 2
-3 -6 6 -10 11 -10 20 3 14 19 30 23 19 5 -4 -7 -3 -8 5 -4 9 6 9 11 -1 24 -8
10 -9 13 -1 9 7 -4 17 0 23 10 10 16 10 16 5 -3 -4 -16 -1 -20 16 -19 11 1 24
7 28 14 6 10 10 9 14 -4 4 -9 3 -13 -3 -10 -6 3 -10 -1 -10 -9 0 -9 5 -16 11
-16 5 0 7 -5 3 -12 -5 -8 -2 -9 10 -5 13 5 15 3 7 -12 -6 -10 -7 -22 -3 -26 4
-3 -1 -13 -11 -20 -18 -13 -18 -13 1 -19 19 -7 38 -66 20 -66 -4 0 -8 -4 -8
-10 0 -5 6 -7 13 -4 8 3 14 -2 14 -10 0 -8 -4 -13 -9 -10 -4 3 -8 1 -8 -4 0
-6 7 -12 15 -16 9 -3 12 -12 8 -22 -5 -13 -3 -15 7 -9 8 5 11 4 6 -3 -4 -6
-14 -8 -23 -5 -15 6 -16 5 -3 -9 8 -9 18 -14 21 -12 3 2 4 -19 2 -47 -2 -36 0
-48 9 -43 6 4 8 3 4 -4 -3 -5 -1 -12 6 -14 9 -3 9 -6 0 -12 -7 -4 -12 -2 -12
4 0 6 -5 8 -11 4 -8 -4 -3 -12 12 -20 13 -7 18 -13 12 -14 -7 0 -13 -5 -13
-11 0 -5 6 -7 13 -3 7 5 6 0 -3 -11 -13 -17 -13 -18 0 -10 13 8 13 7 1 -8 -7
-9 -9 -17 -3 -17 18 0 22 -29 6 -45 -15 -14 -8 -20 19 -16 14 2 7 -17 -9 -23
-10 -4 -13 -2 -8 7 4 6 3 9 -1 4 -24 -21 -13 -52 16 -49 3 1 6 -5 6 -13 0 -8
-5 -13 -11 -12 -6 1 -9 -5 -7 -13 2 -8 5 -22 6 -30 2 -8 4 -15 5 -15 1 0 3 -8
5 -17 2 -11 -2 -15 -12 -11 -12 5 -12 7 -1 14 8 5 9 9 2 9 -6 0 -17 -7 -24
-16 -11 -12 -11 -14 -1 -12 19 5 46 -38 30 -48 -8 -4 -9 -3 -5 4 4 7 2 12 -4
12 -7 0 -9 -7 -6 -16 3 -9 6 -18 6 -20 0 -3 5 -2 10 1 6 3 10 1 10 -6 0 -6 -8
-9 -18 -7 -11 3 -19 0 -19 -8 0 -7 4 -11 9 -8 4 3 8 0 8 -6 0 -6 5 -8 12 -4 6
4 8 3 5 -4 -4 -5 -18 -9 -32 -7 -20 2 -23 -1 -15 -11 8 -9 7 -12 -5 -10 -9 1
-20 8 -24 15 -6 10 -10 9 -14 -4 -4 -9 -3 -13 3 -10 6 3 10 2 10 -3 0 -17 -13
-22 -28 -9 -13 9 -14 9 -8 0 4 -8 2 -13 -5 -13 -8 0 -7 -5 2 -17 13 -15 12
-15 -8 -5 -32 18 -38 14 -13 -6 l23 -18 -25 -20 c-13 -10 -23 -25 -20 -32 2
-6 -1 -12 -7 -12 -6 0 -11 5 -11 12 0 6 -3 8 -7 4 -5 -4 0 -14 10 -21 16 -11
16 -16 5 -34 -7 -11 -19 -22 -28 -25 -12 -3 -11 -4 3 -5 19 -1 23 -16 7 -26
-5 -3 -10 -15 -10 -26 0 -11 -4 -18 -9 -15 -5 3 -8 -6 -8 -20 0 -31 -17 -51
-28 -33 -5 7 -4 10 2 6 5 -3 10 0 10 8 0 11 -4 12 -13 4 -7 -6 -10 -17 -7 -25
3 -8 2 -14 -3 -13 -21 4 -28 -2 -14 -12 13 -9 13 -10 0 -6 -8 2 -14 13 -12 23
2 11 0 15 -5 8 -4 -6 -16 -14 -27 -17 -16 -6 -16 -10 -5 -24 13 -15 12 -15 -8
-5 -24 13 -31 7 -28 -25 1 -14 -3 -19 -12 -16 -7 3 -13 9 -13 15 0 5 -5 6 -11
2 -8 -4 -7 -9 2 -14 15 -10 21 -38 9 -45 -5 -3 -7 3 -5 13 2 11 -3 19 -10 19
-7 0 -11 -7 -8 -14 3 -8 0 -13 -7 -11 -9 2 -14 -8 -15 -29 0 -18 -5 -36 -9
-40 -5 -4 -6 0 -3 10 5 13 3 17 -5 14 -7 -2 -12 -11 -10 -20 1 -8 -3 -19 -9
-23 -8 -5 -9 -3 -4 6 5 9 4 11 -3 6 -7 -4 -12 -13 -12 -21 0 -7 -8 -21 -18
-31 -9 -10 -17 -21 -17 -25 0 -4 -4 -11 -9 -16 -5 -4 -7 -3 -3 2 3 6 -4 17
-16 25 -19 11 -20 11 -11 -1 20 -25 24 -49 9 -42 -8 3 -12 10 -8 17 4 6 -1 5
-10 -3 -13 -10 -14 -17 -5 -35 l11 -21 -22 20 c-16 14 -22 15 -19 5 2 -8 8
-19 13 -23 6 -4 -1 -7 -15 -5 -14 1 -26 -2 -27 -7 -1 -6 6 -8 15 -7 9 2 14 0
9 -4 -4 -4 -17 -8 -30 -10 -12 -1 -23 -3 -25 -3 -1 -1 3 -11 9 -23 12 -22 11
-23 -8 -5 -17 15 -22 15 -31 4 -7 -8 -8 -18 -4 -22 4 -5 -1 -5 -10 -2 -20 7
-34 -8 -17 -19 8 -5 9 -3 4 6 -5 9 -4 11 4 6 19 -12 4 -22 -28 -20 -31 2 -54
-15 -49 -36 2 -7 -5 -14 -16 -15 -14 -3 -16 -1 -7 8 6 6 11 15 11 20 0 4 -11
-4 -24 -20 -21 -25 -26 -26 -42 -13 -18 14 -18 13 0 -8 11 -12 16 -25 13 -29
-4 -3 -7 0 -7 7 0 9 -7 7 -22 -6 -12 -10 -18 -13 -14 -7 10 18 -5 16 -32 -3
-12 -8 -26 -13 -31 -10 -4 3 -7 -6 -5 -19 1 -14 -2 -23 -6 -20 -5 3 -11 1 -15
-5 -4 -7 -14 -6 -28 2 -20 10 -21 10 -8 -6 12 -14 12 -16 -2 -11 -8 4 -18 1
-23 -6 -5 -8 -3 -10 6 -4 8 5 11 4 7 -3 -7 -11 -25 -11 -42 0 -6 4 -11 -2 -11
-13 0 -12 5 -18 14 -14 7 2 10 0 7 -5 -7 -11 195 -216 274 -280 230 -186 437
-313 676 -415 193 -83 408 -148 594 -180 119 -21 860 -21 978 -1 446 79 873
275 1232 564 130 105 251 224 233 229 -6 3 -9 10 -6 15 4 7 2 8 -4 4 -6 -4
-10 -12 -8 -19 1 -7 1 -9 -1 -4 -3 4 -9 5 -14 2 -5 -4 -6 2 -2 12 3 10 3 15
-2 11 -9 -9 -37 11 -30 21 2 4 -2 8 -9 8 -8 0 -12 -6 -9 -14 3 -7 9 -13 14
-13 5 0 9 -6 9 -12 0 -7 -11 -1 -25 14 -15 18 -25 23 -28 15 -4 -9 -6 -9 -6 1
-1 8 -6 10 -13 6 -10 -6 -10 -4 -1 7 7 7 13 18 13 24 0 5 -5 3 -10 -5 -6 -9
-10 -10 -10 -3 0 7 -14 10 -37 8 -29 -3 -34 -1 -20 6 9 6 17 15 17 22 0 8 -3
8 -8 2 -6 -10 -23 -12 -37 -5 -3 1 -9 4 -15 5 -5 1 -13 4 -17 5 -5 1 -11 2
-15 1 -5 0 -8 2 -8 7 0 4 -9 18 -20 32 -16 19 -19 20 -13 5 6 -17 5 -18 -9 -5
-9 8 -14 18 -11 22 2 4 -2 5 -10 2 -8 -3 -18 0 -23 7 -4 7 -3 10 4 5 6 -3 13
-2 16 2 3 5 -10 8 -29 7 -25 -1 -32 2 -25 10 7 8 5 12 -5 12 -8 0 -15 -3 -15
-7 0 -4 -7 -7 -15 -7 -13 0 -12 3 2 19 16 18 16 18 -2 12 -14 -6 -16 -4 -10 6
5 9 4 11 -4 6 -6 -4 -9 -11 -6 -16 3 -4 -3 -14 -13 -21 -15 -13 -16 -12 -4 3
11 14 10 18 -8 28 -11 6 -25 8 -30 5 -6 -4 -9 -1 -8 7 2 7 -3 12 -9 11 -7 -2
-13 3 -13 11 0 7 -8 20 -17 27 -16 12 -17 12 -6 -1 10 -13 9 -16 -7 -16 -10 0
-16 4 -14 8 5 7 -10 12 -28 9 -4 0 -5 8 -3 19 3 14 -2 20 -16 21 -32 2 -37 4
-46 13 -5 5 -3 6 4 2 9 -5 12 1 11 18 -1 15 -6 26 -11 26 -5 0 -7 -7 -3 -15
10 -26 -3 -16 -18 14 -9 16 -12 32 -8 36 4 3 2 6 -3 5 -6 -1 -18 -2 -29 -1
-16 1 -17 3 -5 18 13 15 12 15 -8 5 -16 -9 -24 -9 -29 0 -4 7 -3 8 4 4 7 -4
12 -1 12 8 0 18 -45 50 -59 42 -5 -4 -7 3 -3 16 3 14 1 19 -6 14 -6 -3 -13 -2
-17 4 -3 5 -1 10 6 10 7 0 9 3 6 7 -4 3 -15 -2 -26 -11 -14 -13 -21 -14 -27
-5 -4 7 -3 10 4 5 6 -3 16 2 21 13 16 29 13 38 -5 15 -15 -18 -15 -18 -9 10 6
29 6 30 -12 10 -10 -11 -14 -15 -10 -8 4 7 3 15 -3 19 -6 3 -7 12 -3 18 4 7
-1 6 -10 -2 -10 -8 -20 -11 -24 -7 -3 3 -2 6 4 6 6 0 14 8 18 17 5 14 4 15 -6
6 -10 -10 -16 -8 -30 8 -10 11 -16 28 -14 38 3 16 -5 19 -52 23 -9 1 -10 5 -2
14 8 10 4 21 -19 44 -17 16 -27 30 -23 30 4 0 12 -5 18 -11 8 -8 13 -7 18 3 5
7 5 10 0 6 -10 -9 -35 17 -35 37 0 10 -5 13 -12 9 -7 -5 -8 -3 -2 7 12 20 14
38 4 44 -5 3 -12 0 -16 -6 -4 -7 -3 -9 3 -6 5 3 10 0 10 -8 0 -11 -4 -12 -13
-4 -6 5 -10 18 -7 28 3 10 -1 22 -8 26 -8 6 -10 4 -4 -6 5 -8 4 -11 -1 -6 -5
5 -9 12 -9 15 0 4 -4 13 -9 21 -6 9 -5 12 2 7 6 -3 9 1 8 10 -1 8 -8 19 -15
23 -7 5 -12 11 -12 15 3 19 0 27 -7 22 -4 -2 -9 4 -9 15 -1 12 5 19 15 19 14
0 15 2 2 9 -8 6 -19 7 -25 3 -5 -3 -4 2 4 11 7 9 17 15 20 12 4 -2 8 2 8 9 0
8 -6 12 -12 10 -6 -3 -12 2 -12 10 0 8 3 14 6 12 3 -2 12 2 19 10 7 8 9 14 5
14 -5 0 -9 9 -10 20 -1 13 2 18 10 13 7 -4 6 1 -2 10 -8 10 -11 20 -7 24 3 3
6 1 6 -5 0 -6 7 -9 15 -6 13 5 13 8 -1 21 -10 11 -12 19 -4 27 5 7 8 16 5 19
-3 4 -2 5 2 2 3 -3 13 1 22 8 14 11 14 10 2 -5 -7 -10 -9 -18 -5 -18 17 0 35
38 22 46 -7 5 -8 3 -3 -6 5 -9 4 -11 -4 -6 -14 9 -5 26 14 26 14 0 29 28 26
49 -1 7 2 10 8 6 7 -4 8 0 4 11 -5 14 -3 15 18 4 l24 -11 -25 21 c-14 12 -19
19 -12 15 6 -3 12 -1 12 5 0 6 4 9 9 5 5 -3 13 0 17 6 4 7 3 9 -3 6 -6 -4 -13
2 -16 13 -4 17 -2 18 14 10 15 -8 17 -7 13 5 -4 8 -10 15 -15 15 -6 0 -4 6 3
14 7 8 16 12 19 10 3 -2 5 7 4 19 -3 31 5 48 19 40 6 -4 4 2 -4 12 -8 10 -10
16 -4 12 15 -9 23 11 19 45 -2 21 0 25 13 21 15 -6 15 -4 -1 14 -14 16 -14 20
-2 20 8 0 11 -5 8 -11 -3 -6 -2 -7 2 -3 15 14 15 39 -1 33 -8 -3 -14 -1 -14 4
0 6 7 10 15 10 8 0 15 5 15 10 0 6 -5 9 -11 8 -6 -2 -14 4 -16 12 -4 12 -3 12
5 1 7 -10 11 -10 17 -1 4 7 1 16 -6 21 -12 7 -11 9 1 9 13 0 13 1 0 10 -13 8
-12 10 3 10 9 0 17 4 17 10 0 5 -8 7 -17 4 -17 -5 -17 -5 0 6 9 6 23 8 30 5 6
-4 4 0 -5 8 -10 8 -15 17 -11 20 3 4 12 2 19 -4 8 -7 14 -6 20 2 5 8 3 9 -5 4
-10 -6 -11 -3 -2 14 13 24 23 28 15 6 -4 -8 -1 -15 6 -15 6 0 8 -6 4 -12 -4
-8 -3 -10 2 -5 5 5 9 14 9 20 0 6 11 14 25 17 15 4 24 13 24 22 -1 13 3 15 22
8 19 -8 22 -6 17 7 -4 11 -2 14 5 9 8 -5 10 -2 6 9 -5 12 -2 14 12 8 16 -6 17
-5 4 9 -8 8 -22 13 -30 11 -10 -3 -9 -1 3 7 9 6 23 8 30 4 7 -5 6 0 -3 11 -14
17 -13 18 3 12 23 -9 22 -2 -5 23 -20 18 -20 20 -4 14 13 -5 17 -4 12 4 -3 6
-1 14 5 18 8 4 9 3 5 -4 -4 -7 -2 -12 4 -12 7 0 9 8 5 21 -5 16 -4 19 5 14 9
-5 11 -4 6 4 -5 7 -9 23 -11 37 -2 24 -2 24 18 7 21 -18 21 -18 5 8 -18 29
-15 41 8 32 8 -3 14 -1 14 5 0 6 -6 13 -12 15 -10 4 -10 6 0 6 7 1 12 15 12
37 0 21 4 33 10 29 6 -3 10 -2 10 4 0 5 -6 12 -12 14 -7 3 -3 6 9 6 12 1 24 5
27 10 3 4 -6 7 -19 5 -14 -1 -23 2 -19 7 3 5 9 7 14 4 5 -3 11 -1 15 5 3 5 1
10 -4 10 -6 0 -11 4 -11 10 0 5 8 6 17 3 17 -6 16 -5 -1 22 l-19 30 28 -25 28
-25 -16 24 c-12 19 -13 27 -4 42 7 11 16 19 21 19 5 0 1 -9 -9 -20 -10 -11
-13 -20 -8 -20 10 0 21 17 24 38 0 4 6 13 12 21 9 12 9 13 0 7 -7 -4 -13 -2
-13 3 0 6 7 11 15 11 8 0 15 5 15 11 0 5 -4 8 -9 5 -5 -3 -12 1 -15 10 -5 12
-2 15 9 10 9 -3 13 -2 10 4 -3 6 0 10 7 10 9 0 9 3 -2 10 -12 8 -12 12 -2 18
9 6 8 13 -6 28 -17 17 -17 20 -2 34 8 8 11 12 6 8 -6 -5 -17 -8 -26 -8 -13 1
-12 3 2 14 20 14 14 28 -8 19 -10 -4 -12 0 -8 11 4 10 0 18 -11 22 -9 4 -14
12 -12 19 3 6 -1 12 -9 12 -8 0 -13 -6 -10 -14 7 -17 1 -17 -18 3 -17 17 -60
28 -51 13 4 -5 10 -7 15 -4 5 3 12 0 16 -7 4 -7 4 -10 -1 -6 -4 4 -15 2 -23
-5 -13 -10 -14 -9 -7 2 6 11 4 13 -9 8 -10 -4 -15 -3 -11 3 3 6 1 10 -4 10 -6
0 -11 -4 -11 -10 0 -5 -5 -10 -11 -10 -6 0 -9 7 -5 15 3 8 -4 24 -16 35 -18
16 -19 23 -9 33 10 10 11 8 6 -5 -4 -10 -3 -18 3 -18 5 0 8 14 7 30 -1 17 2
33 7 36 5 3 4 12 -3 20 -6 7 -16 11 -22 7 -6 -3 -7 -1 -3 6 4 6 11 9 16 6 4
-3 13 2 19 9 9 10 9 16 1 21 -6 4 -14 4 -17 1 -4 -3 -1 -6 6 -6 7 0 9 -5 5
-11 -4 -7 -9 -8 -17 0 -7 7 -7 14 1 23 5 7 12 18 14 23 1 6 6 9 11 7 9 -3 -15
41 -28 50 -6 5 -5 8 3 8 7 0 12 13 12 30 0 17 5 30 13 30 9 0 8 3 -2 9 -7 5
-9 11 -4 14 13 8 9 62 -6 81 -12 14 -12 16 1 11 9 -4 15 0 15 9 0 8 -4 13 -9
10 -5 -4 -8 2 -6 12 2 12 -2 18 -10 16 -8 -1 -11 2 -7 8 3 6 11 7 17 4 7 -5 9
-1 5 9 -3 9 -1 18 6 21 11 4 -18 10 -36 7 -5 -1 -6 3 -2 9 3 6 11 7 17 4 8 -5
9 -1 5 10 -4 11 -3 15 4 10 8 -4 9 3 4 26 -5 24 -4 31 5 25 8 -5 8 -1 -1 13
-11 17 -10 23 2 38 13 15 12 16 -11 10 -14 -4 -20 -4 -15 1 6 4 17 17 25 27
12 16 12 18 1 11 -11 -7 -13 -1 -8 29 3 20 2 34 -3 31 -5 -3 -4 9 2 27 5 18 9
38 9 43 -7 77 -20 102 -46 87 -5 -3 -4 2 4 11 8 10 11 20 7 24 -3 3 -6 1 -6
-6 0 -16 -22 5 -39 37 -8 15 -18 21 -27 18 -8 -3 -13 -2 -10 3 3 5 -2 12 -12
16 -16 6 -16 8 3 22 17 13 17 15 2 10 -13 -5 -20 0 -27 19 -6 14 -14 23 -19
20 -5 -4 -17 1 -26 10 -13 13 -13 19 -3 32 11 13 10 14 -12 7 -22 -7 -23 -6
-11 9 12 14 12 16 -3 10 -9 -4 -16 -3 -15 2 4 25 -3 35 -23 32 -17 -2 -24 3
-26 20 -2 12 -7 22 -12 22 -5 0 -7 8 -4 18 5 16 5 16 -6 0 -12 -20 -30 -24
-30 -7 0 5 6 7 13 4 6 -4 3 1 -8 10 -11 9 -19 21 -17 26 1 6 -2 8 -8 4 -5 -3
-10 -1 -10 5 0 7 -8 9 -22 4 l-23 -7 20 24 c15 18 16 20 3 10 -13 -10 -18 -10
-18 -2 0 7 -4 9 -10 6 -5 -3 -10 -1 -10 4 0 6 5 11 12 11 6 0 9 3 6 6 -4 3
-17 0 -30 -7 -12 -6 -20 -8 -16 -4 4 4 2 17 -4 29 -7 11 -11 24 -10 27 1 4 -8
5 -18 2 -13 -3 -20 0 -20 8 0 11 -2 11 -10 -1 -5 -8 -10 -10 -10 -5 0 6 5 16
12 23 15 15 3 15 -25 0 -19 -10 -20 -9 -9 4 10 13 10 19 -3 32 -9 9 -24 16
-33 15 -13 0 -12 -2 4 -9 25 -10 41 -30 25 -30 -6 0 -11 5 -11 10 0 6 -6 10
-12 10 -7 0 -24 6 -38 13 -14 7 -34 12 -46 11 -11 -1 -21 5 -21 12 0 10 4 11
13 3 15 -12 34 -4 34 14 0 8 -3 7 -9 -2 -5 -7 -14 -10 -20 -7 -6 4 -9 11 -6
16 3 5 -7 5 -24 0 -26 -7 -30 -5 -36 18 -5 20 -8 23 -15 12 -10 -16 -11 -15
-29 15 -12 20 -12 20 -8 -1 3 -12 -1 -21 -8 -21 -7 0 -12 8 -10 18 2 10 1 18
-3 18 -27 -4 -52 3 -46 12 4 8 0 9 -15 4 -12 -3 -21 -3 -20 2 4 21 -2 33 -18
33 -15 0 -14 -2 3 -14 18 -14 18 -15 -3 -13 -13 1 -23 5 -23 9 0 4 -7 4 -17 1
-9 -4 -14 -2 -11 3 4 5 -11 9 -32 9 -21 0 -36 -3 -34 -6 1 -3 -3 -6 -11 -6 -8
0 -14 3 -13 6 0 3 0 13 -1 21 -1 12 -4 11 -12 -3 -10 -16 -12 -16 -41 5 -18
12 -29 17 -25 12 3 -6 -4 -16 -16 -23 -18 -11 -20 -11 -9 0 19 21 14 34 -7 15
-14 -13 -21 -14 -27 -5 -4 7 -3 10 3 6 5 -3 10 0 10 8 0 17 -3 19 -12 6z
m-236 -34 c0 -8 -2 -8 -6 1 -4 10 -8 10 -21 0 -15 -12 -16 -11 -3 4 14 19 32
15 30 -5z m-299 -67 c0 -5 -5 -10 -11 -10 -5 0 -7 5 -4 10 3 6 8 10 11 10 2 0
4 -4 4 -10z m1248 -201 c-3 -8 -7 -3 -11 10 -4 17 -3 21 5 13 5 -5 8 -16 6
-23z m222 -179 c0 -5 -5 -10 -11 -10 -5 0 -7 5 -4 10 3 6 8 10 11 10 2 0 4 -4
4 -10z m-2123 -15 c0 -8 -4 -12 -9 -9 -5 3 -6 10 -3 15 9 13 12 11 12 -6z
m2368 -324 c3 -5 2 -12 -3 -15 -5 -3 -9 1 -9 9 0 17 3 19 12 6z m-2485 -131
c0 -5 -5 -10 -11 -10 -5 0 -7 5 -4 10 3 6 8 10 11 10 2 0 4 -4 4 -10z m2475
-500 c3 -5 1 -10 -4 -10 -6 0 -11 5 -11 10 0 6 2 10 4 10 3 0 8 -4 11 -10z
m-4 -123 c-6 -8 -7 -18 -3 -22 4 -5 2 -5 -5 -1 -14 8 -6 36 9 36 7 0 6 -5 -1
-13z m204 -257 c3 -5 1 -10 -4 -10 -6 0 -11 5 -11 10 0 6 2 10 4 10 3 0 8 -4
11 -10z m-2840 -129 c3 -5 0 -13 -6 -17 -7 -4 -9 -3 -5 4 3 5 0 13 -6 15 -9 4
-10 6 -1 6 6 1 14 -3 18 -8z m8 -36 c-3 -9 -8 -14 -10 -11 -3 3 -2 9 2 15 9
16 15 13 8 -4z m141 -401 c3 -9 11 -12 18 -8 7 4 10 4 6 -1 -8 -8 9 -29 32
-38 13 -5 13 -6 -1 -6 -8 -1 -30 15 -49 34 -19 19 -29 35 -23 35 6 0 14 -7 17
-16z m187 -7 c-6 -8 -7 -18 -3 -22 4 -5 1 -5 -6 -1 -10 6 -10 11 -1 22 6 8 14
14 16 14 3 0 0 -6 -6 -13z m2007 -582 c-3 -3 -9 2 -12 12 -6 14 -5 15 5 6 7
-7 10 -15 7 -18z m2 -39 c0 -2 -6 -9 -14 -15 -11 -9 -16 -9 -22 0 -4 8 -3 9 4
5 7 -4 12 -2 12 3 0 6 5 11 10 11 6 0 10 -2 10 -4z m-103 -362 c-3 -3 -12 -4
-19 -1 -8 3 -5 6 6 6 11 1 17 -2 13 -5z m23 -29 c0 -2 -9 -3 -19 -2 -11 0 -18
5 -15 9 4 6 34 0 34 -7z m94 -230 c3 -8 1 -15 -4 -15 -6 0 -10 7 -10 15 0 8 2
15 4 15 2 0 6 -7 10 -15z m-2226 -70 c-3 -3 -9 2 -12 12 -6 14 -5 15 5 6 7 -7
10 -15 7 -18z m2276 17 c3 -5 -1 -9 -9 -9 -8 0 -15 4 -15 9 0 4 4 8 9 8 6 0
12 -4 15 -8z m-2346 -97 c-3 -3 -9 2 -12 12 -6 14 -5 15 5 6 7 -7 10 -15 7
-18z m2552 -121 c0 -2 -9 0 -20 6 -11 6 -20 13 -20 16 0 2 9 0 20 -6 11 -6 20
-13 20 -16z m-2699 -51 c13 -16 12 -17 -3 -4 -10 7 -18 15 -18 17 0 8 8 3 21
-13z m2720 -10 c13 -16 12 -17 -3 -4 -17 13 -22 21 -14 21 2 0 10 -8 17 -17z
m34 -2 c3 -5 2 -12 -3 -15 -5 -3 -9 1 -9 9 0 17 3 19 12 6z m-2834 -68 c13
-16 12 -17 -3 -4 -10 7 -18 15 -18 17 0 8 8 3 21 -13z m-38 -17 c3 -8 -2 -20
-11 -28 -15 -12 -16 -11 -3 5 9 12 10 17 2 17 -7 0 -9 5 -6 10 8 13 12 13 18
-4z m-81 -65 c-4 -10 -7 -11 -10 -3 -2 7 -9 9 -14 6 -6 -4 -8 -3 -5 3 10 16
36 11 29 -6z m-163 -84 c-2 -1 -13 -9 -24 -17 -19 -14 -19 -14 -6 3 7 9 18 17
24 17 6 0 8 -1 6 -3z m3451 -7 c0 -5 -5 -10 -11 -10 -5 0 -7 5 -4 10 3 6 8 10
11 10 2 0 4 -4 4 -10z"/>
<path d="M2856 5195 c4 -8 8 -15 10 -15 2 0 4 7 4 15 0 8 -4 15 -10 15 -5 0
-7 -7 -4 -15z"/>
<path d="M2365 5169 c-4 -6 -5 -12 -2 -15 2 -3 7 2 10 11 7 17 1 20 -8 4z"/>
<path d="M3310 5040 c0 -5 5 -10 10 -10 6 0 10 5 10 10 0 6 -4 10 -10 10 -5 0
-10 -4 -10 -10z"/>
<path d="M1970 5018 c0 -5 -5 -6 -12 -2 -7 4 -8 3 -4 -4 5 -9 13 -9 27 -2 23
13 24 17 4 17 -8 0 -15 -4 -15 -9z"/>
<path d="M1635 4800 c-3 -5 -1 -10 4 -10 6 0 11 5 11 10 0 6 -2 10 -4 10 -3 0
-8 -4 -11 -10z"/>
<path d="M3665 4769 c-4 -6 -5 -12 -2 -15 2 -3 7 2 10 11 7 17 1 20 -8 4z"/>
<path d="M1590 4759 c0 -5 5 -7 10 -4 6 3 10 8 10 11 0 2 -4 4 -10 4 -5 0 -10
-5 -10 -11z"/>
<path d="M3740 4677 c0 -2 6 -10 14 -16 11 -9 16 -9 22 1 4 7 4 10 -1 6 -4 -4
-14 -3 -22 3 -7 6 -13 9 -13 6z"/>
<path d="M3820 4580 c8 -5 22 -9 30 -9 10 0 8 3 -5 9 -27 12 -43 12 -25 0z"/>
<path d="M1420 4441 c0 -6 4 -12 8 -15 5 -3 9 1 9 9 0 8 -4 15 -9 15 -4 0 -8
-4 -8 -9z"/>
<path d="M3940 4086 c0 -2 7 -7 16 -10 8 -3 12 -2 9 4 -6 10 -25 14 -25 6z"/>
<path d="M1426 3878 c3 -5 10 -6 15 -3 13 9 11 12 -6 12 -8 0 -12 -4 -9 -9z"/>
<path d="M3936 3787 c3 -10 9 -15 12 -12 3 3 0 11 -7 18 -10 9 -11 8 -5 -6z"/>
<path d="M1275 3630 c-3 -5 -1 -10 4 -10 6 0 11 5 11 10 0 6 -2 10 -4 10 -3 0
-8 -4 -11 -10z"/>
<path d="M1441 3623 c-1 -17 16 -25 25 -12 4 7 3 9 -4 5 -5 -3 -13 0 -15 6 -4
9 -6 10 -6 1z"/>
<path d="M1255 3600 c3 -6 -1 -13 -9 -16 -9 -3 -13 -11 -9 -17 4 -6 11 -3 20
8 16 23 17 35 2 35 -5 0 -7 -5 -4 -10z"/>
<path d="M1330 3020 c0 -5 5 -10 11 -10 5 0 7 5 4 10 -3 6 -8 10 -11 10 -2 0
-4 -4 -4 -10z"/>
<path d="M3714 2366 c1 -8 5 -18 8 -22 4 -3 5 1 4 10 -1 8 -5 18 -8 22 -4 3
-5 -1 -4 -10z"/>
<path d="M1714 2252 c3 -5 0 -13 -6 -15 -9 -4 -10 -6 -1 -6 17 -1 25 16 12 25
-7 4 -9 3 -5 -4z"/>
<path d="M1708 2093 c6 -2 9 -10 6 -15 -4 -7 -2 -8 5 -4 13 9 5 26 -12 25 -9
0 -8 -2 1 -6z"/>
<path d="M3556 2082 c-3 -4 4 -9 15 -9 23 -2 25 3 4 10 -8 4 -16 3 -19 -1z"/>
<path d="M1595 1820 c4 -6 11 -8 16 -5 14 9 11 15 -7 15 -8 0 -12 -5 -9 -10z"/>
<path d="M3590 1739 c0 -5 5 -7 10 -4 6 3 10 8 10 11 0 2 -4 4 -10 4 -5 0 -10
-5 -10 -11z"/>
<path d="M1559 1723 c-13 -16 -12 -17 4 -4 9 7 17 15 17 17 0 8 -8 3 -21 -13z"/>
<path d="M1225 1320 c-3 -6 1 -7 9 -4 18 7 21 14 7 14 -6 0 -13 -4 -16 -10z"/>
<path d="M4023 1177 c0 -8 6 -14 14 -14 9 0 10 4 2 14 -6 7 -12 13 -14 13 -1
0 -2 -6 -2 -13z"/>
<path d="M4070 1129 c0 -5 5 -7 10 -4 6 3 10 8 10 11 0 2 -4 4 -10 4 -5 0 -10
-5 -10 -11z"/>
<path d="M4180 1066 c0 -2 7 -6 15 -10 8 -3 15 -1 15 4 0 6 -7 10 -15 10 -8 0
-15 -2 -15 -4z"/>
<path d="M4381 964 c-1 -7 10 -19 24 -28 21 -14 24 -14 19 -1 -4 8 -12 15 -19
15 -7 0 -16 6 -18 13 -4 7 -6 8 -6 1z"/>
<path d="M4440 932 c9 -19 30 -23 30 -5 0 4 -3 3 -7 0 -3 -4 -12 1 -20 11 -13
15 -13 15 -3 -6z"/>
</g>
</svg>
